<?xml version="1.0" encoding="utf-8"?>
<!-- Generator: Adobe Illustrator 27.0.1, SVG Export Plug-In . SVG Version: 6.00 Build 0)  -->
<svg version="1.1" id="Capa_1" xmlns="http://www.w3.org/2000/svg" xmlns:xlink="http://www.w3.org/1999/xlink" x="0px" y="0px"
	 viewBox="0 0 1080 357.54" style="enable-background:new 0 0 1080 357.54;" xml:space="preserve">
<style type="text/css">
	.st0{fill:url(#SVGID_1_);}
	.st1{fill:url(#SVGID_00000179609384621291471440000004600633956559883962_);}
	.st2{fill:url(#SVGID_00000129183689069811920930000016563138536068807342_);}
	.st3{fill:url(#SVGID_00000064350505737275331650000008544221585614347431_);}
	.st4{fill:url(#SVGID_00000013880118610865311670000015282666078351457975_);}
	.st5{fill:url(#SVGID_00000140695078026408585180000018068072991631421327_);}
	.st6{fill:url(#SVGID_00000000204597381751167760000004794303524222100121_);}
	.st7{fill:url(#SVGID_00000105424598638574174270000000139685179208706492_);}
	.st8{fill:url(#SVGID_00000023277263965555931460000008688558379462453138_);}
	.st9{fill:url(#SVGID_00000129207972667361905700000018330149736124111233_);}
</style>
<linearGradient id="SVGID_1_" gradientUnits="userSpaceOnUse" x1="253.2115" y1="172.13" x2="253.2115" y2="0.246">
	<stop  offset="0" style="stop-color:#FFFFFF"/>
	<stop  offset="0.5024" style="stop-color:#92AEB2"/>
	<stop  offset="1" style="stop-color:#007175"/>
</linearGradient>
<path class="st0" d="M335.14,0.25v30.69h-67.28v141.19h-29.3V30.94h-67.28V0.25H335.14z"/>
<linearGradient id="SVGID_00000124869210476351547890000012335589015335225748_" gradientUnits="userSpaceOnUse" x1="620.6607" y1="171.884" x2="620.6607" y2="0">
	<stop  offset="0" style="stop-color:#FFFFFF"/>
	<stop  offset="0.5024" style="stop-color:#92AEB2"/>
	<stop  offset="1" style="stop-color:#007175"/>
</linearGradient>
<path style="fill:url(#SVGID_00000124869210476351547890000012335589015335225748_);" d="M704.35,171.88h-32.82l-15-30.69
	l-35.86-73.66l-35.86,73.66l-15,30.69h-32.82l15-30.69L620.66,0l68.68,141.19L704.35,171.88z"/>
<linearGradient id="SVGID_00000159439592127054674250000003746497469193633964_" gradientUnits="userSpaceOnUse" x1="800.461" y1="171.884" x2="800.461" y2="0">
	<stop  offset="0" style="stop-color:#FFFFFF"/>
	<stop  offset="0.5024" style="stop-color:#92AEB2"/>
	<stop  offset="1" style="stop-color:#007175"/>
</linearGradient>
<path style="fill:url(#SVGID_00000159439592127054674250000003746497469193633964_);" d="M882.51,0v171.88h-29.3V62.37l-28.83,23.08
	l-23.91,19.4l-23.91-19.4l-28.83-23.08v109.51h-29.3V0l29.3,23.57l52.74,42.48l52.74-42.48L882.51,0z"/>
<linearGradient id="SVGID_00000076587649718235794310000012976086123323044500_" gradientUnits="userSpaceOnUse" x1="440.9793" y1="171.884" x2="440.9793" y2="0">
	<stop  offset="0" style="stop-color:#FFFFFF"/>
	<stop  offset="0.5024" style="stop-color:#92AEB2"/>
	<stop  offset="1" style="stop-color:#007175"/>
</linearGradient>
<polygon style="fill:url(#SVGID_00000076587649718235794310000012976086123323044500_);" points="522.91,30.69 522.91,0 403.12,0 
	388.35,0 359.05,0 359.05,30.69 359.05,46.41 359.05,125.47 359.05,141.44 359.05,171.88 388.12,171.88 403.12,171.88 
	522.91,171.88 522.91,141.19 388.12,141.19 388.12,93.06 493.61,93.06 493.61,62.37 388.12,62.37 388.12,30.69 "/>
<g>
	
		<linearGradient id="SVGID_00000006701694225148154570000011733164142777951898_" gradientUnits="userSpaceOnUse" x1="620.7633" y1="188.2665" x2="620.7633" y2="357.5423">
		<stop  offset="0" style="stop-color:#FFFFFF"/>
		<stop  offset="0.5024" style="stop-color:#92AEB2"/>
		<stop  offset="1" style="stop-color:#007175"/>
	</linearGradient>
	<path style="fill:url(#SVGID_00000006701694225148154570000011733164142777951898_);" d="M707.1,188.27l-15.48,30.23l-70.85,139.05
		l-70.85-139.05l-15.48-30.23h33.86l15.47,30.23l37,72.55l37-72.55l15.48-30.23H707.1z"/>
	
		<linearGradient id="SVGID_00000109002398832161780710000006104856731762780845_" gradientUnits="userSpaceOnUse" x1="995.3621" y1="188.2665" x2="995.3621" y2="357.7846">
		<stop  offset="0" style="stop-color:#FFFFFF"/>
		<stop  offset="0.5024" style="stop-color:#92AEB2"/>
		<stop  offset="1" style="stop-color:#007175"/>
	</linearGradient>
	<path style="fill:url(#SVGID_00000109002398832161780710000006104856731762780845_);" d="M1080,188.51v169.28l-30.22-23.22
		l-108.82-83.91v107.13h-30.23V188.99l30.23,23.22l108.82,83.91V188.27L1080,188.51z"/>
	
		<linearGradient id="SVGID_00000003105796572374260250000009529408161616063414_" gradientUnits="userSpaceOnUse" x1="84.5177" y1="188.2665" x2="84.5177" y2="357.5423">
		<stop  offset="0" style="stop-color:#FFFFFF"/>
		<stop  offset="0.5024" style="stop-color:#92AEB2"/>
		<stop  offset="1" style="stop-color:#007175"/>
	</linearGradient>
	<polygon style="fill:url(#SVGID_00000003105796572374260250000009529408161616063414_);" points="169.04,218.49 169.04,188.27 
		45.46,188.27 29.99,188.27 0,188.27 0,218.25 0,233.97 0,311.6 0,327.31 0,357.54 30.23,357.54 45.46,357.54 169.04,357.54 
		169.04,327.31 29.99,327.31 29.99,279.92 138.81,279.92 138.81,249.69 29.99,249.69 29.99,218.49 	"/>
	
		<linearGradient id="SVGID_00000048465708757502750820000002603296826911355787_" gradientUnits="userSpaceOnUse" x1="262.9866" y1="188.5088" x2="262.9866" y2="357.7846">
		<stop  offset="0" style="stop-color:#FFFFFF"/>
		<stop  offset="0.5024" style="stop-color:#92AEB2"/>
		<stop  offset="1" style="stop-color:#007175"/>
	</linearGradient>
	<polyline style="fill:url(#SVGID_00000048465708757502750820000002603296826911355787_);" points="223.43,327.27 223.45,306.76 
		223.45,188.51 193.22,188.51 193.22,303.86 193.22,357.78 246.91,357.78 332.75,357.78 332.75,327.56 	"/>
	
		<linearGradient id="SVGID_00000145760908231469024070000010777124631327982756_" gradientUnits="userSpaceOnUse" x1="441.6957" y1="188.2665" x2="441.6957" y2="357.5423">
		<stop  offset="0" style="stop-color:#FFFFFF"/>
		<stop  offset="0.5024" style="stop-color:#92AEB2"/>
		<stop  offset="1" style="stop-color:#007175"/>
	</linearGradient>
	<polygon style="fill:url(#SVGID_00000145760908231469024070000010777124631327982756_);" points="526.21,218.49 526.21,188.27 
		402.64,188.27 387.16,188.27 357.18,188.27 357.18,218.25 357.18,233.97 357.18,311.6 357.18,327.31 357.18,357.54 387.41,357.54 
		402.64,357.54 526.21,357.54 526.21,327.31 387.16,327.31 387.16,279.92 495.99,279.92 495.99,249.69 387.16,249.69 387.16,218.49 
			"/>
	
		<linearGradient id="SVGID_00000173124419752367503070000006110330336968818075_" gradientUnits="userSpaceOnUse" x1="802.0214" y1="188.2665" x2="802.0214" y2="357.5423">
		<stop  offset="0" style="stop-color:#FFFFFF"/>
		<stop  offset="0.5024" style="stop-color:#92AEB2"/>
		<stop  offset="1" style="stop-color:#007175"/>
	</linearGradient>
	<polygon style="fill:url(#SVGID_00000173124419752367503070000006110330336968818075_);" points="886.54,218.49 886.54,188.27 
		762.97,188.27 747.49,188.27 717.5,188.27 717.5,218.25 717.5,233.97 717.5,311.6 717.5,327.31 717.5,357.54 747.73,357.54 
		762.97,357.54 886.54,357.54 886.54,327.31 747.49,327.31 747.49,279.92 856.31,279.92 856.31,249.69 747.49,249.69 747.49,218.49 
			"/>
</g>
</svg>
